<svg xmlns="http://www.w3.org/2000/svg" viewBox="0 0 512 512" style="enable-background:new 0 0 512 512" xml:space="preserve"><path style="fill:#e4eaf8" d="M485.083 457.593H26.917c-10.122 0-18.327-8.205-18.327-18.327V72.734c0-10.122 8.205-18.327 18.327-18.327h458.166c10.122 0 18.327 8.205 18.327 18.327v366.532c-.001 10.122-8.205 18.327-18.327 18.327z"/><path style="fill:#fff" d="M8.591 127.714H256v329.879H26.917c-10.122 0-18.327-8.205-18.327-18.327V127.714z"/><path style="fill:#5b5d6e" d="M256 457.593h229.083c10.122 0 18.327-8.205 18.327-18.327V127.714H256v329.879z"/><path style="fill:#b4e66e" d="M45.244 173.53h174.103v109.96H45.244z"/><path style="fill:#c8ff82" d="M219.347 256h-91.633c-30.365 0-54.98-24.615-54.98-54.98v-27.49h146.613V256z"/><path style="fill:#e4eaf8" d="M503.409 127.714H8.591v-54.98c0-10.122 8.205-18.327 18.327-18.327h458.166c10.122 0 18.327 8.205 18.327 18.327v54.98z"/><path d="M485.083 45.817H26.917C12.075 45.817 0 57.892 0 72.734v366.532c0 14.842 12.075 26.917 26.917 26.917h458.166c14.842 0 26.917-12.075 26.917-26.917V72.734c0-14.842-12.075-26.917-26.917-26.917zM26.917 62.998h458.166c5.369 0 9.736 4.367 9.736 9.736v46.389H17.181V72.734c0-5.369 4.368-9.736 9.736-9.736zm458.166 386.004H264.591V191.856a8.591 8.591 0 0 0-17.182 0v257.147H26.917c-5.369 0-9.736-4.367-9.736-9.736V136.304h230.228v18.897a8.591 8.591 0 0 0 17.182 0v-18.897h230.228v302.962c0 5.369-4.368 9.736-9.736 9.736z"/><path d="M45.335 99.651a8.591 8.591 0 0 0 0-17.182h-.092c-4.744 0-8.545 3.846-8.545 8.591s3.893 8.591 8.637 8.591zM72.825 99.651a8.591 8.591 0 0 0 0-17.182h-.092c-4.744 0-8.545 3.846-8.545 8.591s3.893 8.591 8.637 8.591zM100.315 99.651a8.591 8.591 0 0 0 0-17.182h-.092c-4.744 0-8.545 3.846-8.545 8.591s3.893 8.591 8.637 8.591zM136.877 99.651h247.409a8.591 8.591 0 0 0 0-17.182H136.877a8.591 8.591 0 0 0 0 17.182zM420.94 99.651h45.817a8.591 8.591 0 0 0 0-17.182H420.94a8.591 8.591 0 0 0 0 17.182zM219.347 164.94H45.244a8.591 8.591 0 0 0-8.591 8.591v109.96a8.591 8.591 0 0 0 8.591 8.591h174.103a8.591 8.591 0 0 0 8.591-8.591V173.53a8.592 8.592 0 0 0-8.591-8.59zm-8.591 109.959H53.834V182.12h156.922v92.779zM219.347 320.716H45.244a8.591 8.591 0 0 0 0 17.182h174.103a8.591 8.591 0 0 0 0-17.182zM136.877 357.369H45.244a8.591 8.591 0 0 0 0 17.182h91.633a8.591 8.591 0 0 0 0-17.182zM136.877 394.022H45.244a8.591 8.591 0 0 0 0 17.182h91.633a8.591 8.591 0 0 0 0-17.182zM219.347 357.369H173.53a8.591 8.591 0 0 0 0 17.182h45.817a8.591 8.591 0 0 0 0-17.182zM219.347 394.022H173.53a8.591 8.591 0 0 0 0 17.182h45.817a8.591 8.591 0 0 0 0-17.182zM292.653 191.284h27.49a8.591 8.591 0 0 0 0-17.182h-27.49a8.591 8.591 0 0 0 0 17.182zM466.756 174.103h-109.96a8.591 8.591 0 0 0 0 17.182h109.96a8.591 8.591 0 0 0 0-17.182zM466.756 210.756h-82.47a8.591 8.591 0 0 0 0 17.182h82.47a8.591 8.591 0 0 0 0-17.182zM356.224 219.347a8.591 8.591 0 0 0-8.591-8.591h-27.49a8.591 8.591 0 0 0 0 17.182h27.49a8.593 8.593 0 0 0 8.591-8.591zM292.653 264.591h27.49a8.591 8.591 0 0 0 0-17.182h-27.49a8.591 8.591 0 0 0 0 17.182zM466.756 247.409h-109.96a8.591 8.591 0 0 0 0 17.182h109.96a8.591 8.591 0 0 0 0-17.182zM466.756 284.063h-82.47a8.591 8.591 0 0 0 0 17.182h82.47a8.591 8.591 0 0 0 0-17.182zM347.633 284.063h-27.49a8.591 8.591 0 0 0 0 17.182h27.49a8.591 8.591 0 0 0 0-17.182zM292.653 337.897h27.49a8.591 8.591 0 0 0 0-17.182h-27.49a8.591 8.591 0 0 0 0 17.182zM348.206 329.306a8.591 8.591 0 0 0 8.591 8.591h73.306a8.591 8.591 0 0 0 0-17.182h-73.306a8.592 8.592 0 0 0-8.591 8.591zM466.756 357.369h-82.47a8.591 8.591 0 0 0 0 17.182h82.47a8.591 8.591 0 0 0 0-17.182zM356.224 365.96a8.591 8.591 0 0 0-8.591-8.591h-27.49a8.591 8.591 0 0 0 0 17.182h27.49a8.593 8.593 0 0 0 8.591-8.591zM320.143 394.022h-27.49a8.591 8.591 0 0 0 0 17.182h27.49a8.591 8.591 0 0 0 0-17.182zM430.103 394.022h-73.306a8.591 8.591 0 0 0 0 17.182h73.306a8.591 8.591 0 0 0 0-17.182z"/></svg>